<svg xmlns="http://www.w3.org/2000/svg" width="128" height="128" viewBox="0 0 128 128">
  <defs>
    <linearGradient id="j" x1="0" y1="0" x2="1" y2="1">
      <stop offset="0" stop-color="#741cff" />
      <stop offset="1" stop-color="#2038ff" />
    </linearGradient>
  </defs>
  <path fill="#07101f" d="M47 28c-19 0-33 13-33 33s14 34 34 34h13c8 0 14-6 14-14V57c0-2-1-3-3-3H48L35 67h25v12c0 3-2 5-5 5h-7c-14 0-23-9-23-23s9-23 23-23h20l14-14H47Z" />
  <path fill="url(#j)" d="M91 34h17v34c0 24-15 41-39 41H62l14-15c12-1 18-10 18-26V34Z" />
  <path fill="#741cff" d="m87 26 17-17h20l-17 17H87Z" />
</svg>